<?xml version="1.0" standalone="no"?><!DOCTYPE svg PUBLIC "-//W3C//DTD SVG 1.1//EN" "http://www.w3.org/Graphics/SVG/1.1/DTD/svg11.dtd"><svg class="icon" width="200px" height="153.06px" viewBox="0 0 1338 1024" version="1.1" xmlns="http://www.w3.org/2000/svg"><path d="M1146.394642 546.344359L1197.462751 991.81865l-134.00103-417.724472a305.986605 305.986605 0 0 0 82.932921-27.749819z" fill="#D3EEE4" /><path d="M1117.062133 289.737661l29.332509 256.606698a305.986605 305.986605 0 0 1-82.932921 28.066357L1004.26914 390.396703a116.063885 116.063885 0 0 0 16.037918-1.160639l4.642556-0.738588a88.736115 88.736115 0 0 0 10.551262-2.532303 39.250696 39.250696 0 0 0 4.959093-1.58269 28.17187 28.17187 0 0 0 4.43153-1.582689h0.844101l4.326018-1.793715a36.929418 36.929418 0 0 0 4.642555-2.215765 44.631839 44.631839 0 0 0 4.43153-2.321277 110.577228 110.577228 0 0 0 13.505616-8.757548 93.273158 93.273158 0 0 0 10.551262-9.390623 115.325296 115.325296 0 0 0 10.551262-11.289851c1.055126-1.266151 2.00474-2.637816 2.954354-4.00948a48.219268 48.219268 0 0 0 2.848841-4.220505 29.860072 29.860072 0 0 0 2.637815-4.326017 42.943637 42.943637 0 0 0 2.532303-4.43153 105.512622 105.512622 0 0 0 9.285111-23.951366 36.507367 36.507367 0 0 0 1.160639-4.642555 50.646059 50.646059 0 0 0 1.055126-5.592169 44.104276 44.104276 0 0 0 0.844101-6.119732zM1004.26914 390.396703l-59.192582 184.647089L811.181041 991.81865l80.295105-702.397527a94.96136 94.96136 0 0 0 4.43153 20.469449 98.759815 98.759815 0 0 0 5.592169 14.455229 69.743843 69.743843 0 0 0 4.748068 8.968573 100.448016 100.448016 0 0 0 8.546523 12.556002 92.95662 92.95662 0 0 0 10.551262 11.289851c2.321278 2.321278 4.642555 4.43153 7.174858 6.541782a109.522102 109.522102 0 0 0 21.102525 13.927666 37.562494 37.562494 0 0 0 4.642555 2.215765l4.748068 2.00474c3.165379 1.266151 6.43627 2.321278 9.707162 3.270892s6.752808 1.793715 10.551262 2.42679l5.170118 0.844101a116.063885 116.063885 0 0 0 15.826894 2.00474z" fill="#D3EEE4" /><path d="M1042.148171 15.826893v90.951881H966.495621V15.826893h75.65255zM1117.062133 289.737661c0 1.793715 0 3.481917-0.738588 5.275631a50.646059 50.646059 0 0 1-1.055127 5.592169l-1.160639 4.642555a117.857599 117.857599 0 0 1-9.28511 23.951366l-2.532303 4.43153c-0.844101 1.477177-1.688202 2.954353-2.637816 4.326017l-2.848841 4.220505c-0.949614 1.371664-1.899227 2.743328-2.954353 4.00948a116.063885 116.063885 0 0 1-21.102524 21.102524 110.577228 110.577228 0 0 1-13.505616 8.757548l-4.43153 2.321278-4.642556 2.215765-4.326017 1.793714h-0.844101a37.668006 37.668006 0 0 1-4.43153 1.58269 46.214529 46.214529 0 0 1-4.959094 1.582689 88.736115 88.736115 0 0 1-10.551262 2.532303l-4.642555 0.738588a111.948892 111.948892 0 0 1-31.653787 0l-5.170118-0.844101c-3.481917-0.633076-6.85832-1.477177-10.551263-2.42679s-6.541783-2.00474-9.707161-3.270891l-4.959093-2.426791c-1.582689-0.738588-3.165379-1.371664-4.642555-2.215765a109.522102 109.522102 0 0 1-21.102525-13.927666c-2.42679-2.110252-4.853581-4.220505-7.174858-6.541782a114.164657 114.164657 0 0 1-10.551263-11.289851 119.334776 119.334776 0 0 1-8.546522-12.556002c-1.688202-2.954353-3.270891-5.908707-4.748068-8.968573a133.262442 133.262442 0 0 1-5.592169-14.455229 117.013498 117.013498 0 0 1-4.326017-20.469449A113.637094 113.637094 0 1 1 1118.433797 276.337558a116.063885 116.063885 0 0 1-1.371664 13.400103z" fill="#06C7CA" /><path d="M104.668521 665.573622h258.927976v258.927975H104.668521zM363.596497 665.573622H622.524472v258.927975H363.596497zM363.596497 406.645647H622.524472v258.927975H363.596497zM104.668521 406.645647h258.927976v258.927975H104.668521z" fill="#D3EEE4" /><path d="M711.471613 150.355487v823.737043a34.18609 34.18609 0 0 1-34.18609 34.080577H49.90747a34.18609 34.18609 0 0 1-34.080577-34.080577V150.355487A34.18609 34.18609 0 0 1 49.90747 116.063885h627.378053a34.291602 34.291602 0 0 1 34.18609 34.291602zM622.524472 924.501597V406.645647H104.668521v517.85595H622.524472z m0-592.558887V218.833179H104.668521v113.109531z" fill="#FF8875" /><path d="M677.285523 1024H49.90747A50.012983 50.012983 0 0 1 0 974.09253V150.355487a50.012983 50.012983 0 0 1 49.90747-50.012983h627.378053a50.012983 50.012983 0 0 1 50.012983 50.012983v823.737043a50.012983 50.012983 0 0 1-50.012983 49.90747zM49.90747 131.996291A18.359196 18.359196 0 0 0 31.653787 150.355487v823.737043a18.253684 18.253684 0 0 0 18.253683 18.253683h627.378053a18.359196 18.359196 0 0 0 18.359196-18.253683V150.355487a18.359196 18.359196 0 0 0-18.359196-18.359196z" fill="#18252F" /><path d="M622.524472 940.32849H104.668521a15.826893 15.826893 0 0 1-15.826893-15.826893V406.645647A15.826893 15.826893 0 0 1 104.668521 390.396703H622.524472a15.826893 15.826893 0 0 1 15.826893 15.826893v518.278001a15.826893 15.826893 0 0 1-15.826893 15.826893z m-502.029057-31.653786H606.697579V422.050489H120.495415zM622.524472 348.191654H104.668521a15.826893 15.826893 0 0 1-15.826893-15.826894V218.833179a15.826893 15.826893 0 0 1 15.826893-15.826894H622.524472a15.826893 15.826893 0 0 1 15.826893 15.826894v113.109531A15.826893 15.826893 0 0 1 622.524472 348.191654z m-502.029057-31.653787H606.697579v-81.877795H120.495415z" fill="#18252F" /><path d="M104.668521 649.746728H622.524472v31.653787H104.668521z" fill="#18252F" /><path d="M347.769603 406.645647h31.653787v517.85595h-31.653787zM159.851623 524.186708h136.533333v31.653787H159.851623z" fill="#18252F" /><path d="M212.291396 471.746935h31.653787v136.533333h-31.653787zM168.545863 763.267759l22.368676-22.389779 96.670665 96.565152-22.368676 22.389779z" fill="#18252F" /><path d="M168.683029 837.379825l96.702319-96.533498 22.368676 22.400329-96.71287 96.54405zM426.587532 524.186708h136.533334v31.653787H426.587532zM426.587532 749.139619h136.533334v31.653786H426.587532zM426.587532 813.396806h136.533334v31.653786H426.587532zM1004.26914 595.829778a339.223081 339.223081 0 0 1-62.146935-5.803194l5.908707-30.809685a304.509428 304.509428 0 0 0 112.476455 0 290.792787 290.792787 0 0 0 79.028954-27.011232 300.288923 300.288923 0 0 0 167.34302-270.323338h31.653786a331.731685 331.731685 0 0 1-184.752601 298.600721 321.919011 321.919011 0 0 1-87.153427 29.438022 330.465533 330.465533 0 0 1-62.357959 5.908706z" fill="#18252F" /><path d="M811.181041 1007.962081a16.143431 16.143431 0 0 1-3.376404 0 15.826893 15.826893 0 0 1-12.344977-17.30407L875.754766 287.943946a15.826893 15.826893 0 0 1 31.653786 0 101.925193 101.925193 0 0 0 3.587429 18.042659 116.063885 116.063885 0 0 0 4.853581 12.556002c1.160639 2.42679 2.532303 5.064606 4.00948 7.596909a103.613395 103.613395 0 0 0 7.280371 10.551262 98.654302 98.654302 0 0 0 8.652035 9.707161c2.215765 2.215765 4.43153 4.114992 6.541782 5.908707l-21.102524 23.951365c-2.743328-2.321278-5.381144-4.748068-8.018959-7.280371a129.14745 129.14745 0 0 1-11.395364-12.661514l-2.215765-2.848841-54.444513 480.926533 144.02473-449.378259 30.17661 9.707161-193.088099 602.266049a15.826893 15.826893 0 0 1-15.088305 10.973312z" fill="#18252F" /><path d="M968.394848 400.947965a118.068624 118.068624 0 0 1-11.184338-3.798454l-5.592169-2.321278-1.266151-0.527563c-1.582689-0.738588-3.059866-1.371664-4.537043-2.215765l15.615868-27.538795 1.793715 0.844101 1.793714 0.844101 3.587429 1.477177a89.052653 89.052653 0 0 0 8.546523 2.848841zM986.331994 404.429882l-5.697682-0.949614 5.275631-31.653787 4.220505 0.738589zM1197.462751 1007.962081a15.826893 15.826893 0 0 1-15.088305-10.551262L989.180835 394.72272l30.17661-9.707161 144.130242 449.272746-62.041422-541.912828h-0.738589c0-1.477177 0-2.848841 0.633076-4.326018a15.826893 15.826893 0 0 1 15.721381-13.716641 15.826893 15.826893 0 0 1 15.721381 14.033179L1213.395157 990.341473a15.826893 15.826893 0 0 1-12.344977 17.304071 16.248944 16.248944 0 0 1-3.587429 0.316537z" fill="#18252F" /><path d="M1109.781762 351.146007l-26.061618-18.042658 2.532303-3.692942c1.055126-1.477177 1.582689-2.532303 2.215765-3.587429l2.532303-4.43153a101.292117 101.292117 0 0 0 7.702422-20.152911l1.160638-4.642556 30.598661 8.124472-1.160639 4.642556a133.473467 133.473467 0 0 1-10.551262 27.222256l-2.848841 4.959094c-1.055126 1.793715-2.110252 3.692942-3.376404 5.486656zM1082.34848 379.84544l-18.992272-25.323029a100.553529 100.553529 0 0 0 9.390624-8.124472 99.498403 99.498403 0 0 0 8.757547-9.707161l24.900979 19.625348a132.523854 132.523854 0 0 1-24.056878 23.529314zM1051.222257 396.832973l-10.551263-29.860072 2.426791-1.055127 1.899227-0.844101 2.532303-1.160638 4.009479-2.110253 15.615869 27.538795-4.748068 2.532302-4.326018 2.110253h-2.321278zM1039.615868 400.947965l-7.702421-30.704173 3.270891-1.055126h1.160639l2.532303-0.949614 12.450489 29.121484a54.866564 54.866564 0 0 1-5.697681 2.110252 59.192581 59.192581 0 0 1-6.01422 1.477177zM1022.417311 404.429882l-4.326018-31.653787 3.692942-0.527563 6.225245 31.020711zM988.442246 106.778774h31.653787v55.92169h-31.653787z" fill="#18252F" /><path d="M1042.148171 122.605667H966.495621a15.826893 15.826893 0 0 1-15.826894-15.826893V15.826893A15.826893 15.826893 0 0 1 966.495621 0h75.65255a15.826893 15.826893 0 0 1 15.826893 15.826893v90.951881a15.826893 15.826893 0 0 1-15.826893 15.826893z m-59.825657-31.653787h43.998764V31.653787H982.322514zM1004.26914 405.696033a129.991551 129.991551 0 0 1-18.253684-1.266151l-5.803194-0.949614c-4.00948-0.738588-7.807934-1.688202-11.711901-2.743328s-7.702421-2.321278-11.289851-3.798455l-5.592169-2.321277a44.737352 44.737352 0 0 1-5.803194-2.743329 121.972591 121.972591 0 0 1-23.845853-15.510355c-2.954353-2.42679-5.592169-4.853581-8.335497-7.596909a106.778774 106.778774 0 0 1-11.500876-12.87254 115.114271 115.114271 0 0 1-9.707161-14.349716 82.827409 82.827409 0 0 1-5.486656-10.551263 113.426069 113.426069 0 0 1-6.330758-16.354456 108.783514 108.783514 0 0 1-4.85358-23.212777 127.248223 127.248223 0 0 1-0.949614-15.088305 129.463988 129.463988 0 0 1 258.927975 0 131.15219 131.15219 0 0 1-0.949613 15.193818 48.957857 48.957857 0 0 1-0.844101 5.803194 57.820917 57.820917 0 0 1-1.160639 6.225245 56.34374 56.34374 0 0 1-1.477177 6.119732 120.811953 120.811953 0 0 1-10.551262 27.011231 54.444513 54.444513 0 0 1-2.743328 4.853581 46.320041 46.320041 0 0 1-3.165379 5.170118c-1.055126 1.688202-2.215765 3.481917-3.481917 5.170119s-2.00474 2.848841-3.376403 4.537042a129.041937 129.041937 0 0 1-11.184338 12.87254 106.567749 106.567749 0 0 1-12.344977 10.551262 126.615147 126.615147 0 0 1-15.404843 10.0237c-1.582689 0.949614-3.270891 1.793715-4.959093 2.637815a52.756311 52.756311 0 0 1-5.908707 2.743328 49.801958 49.801958 0 0 1-4.853581 2.00474 45.581453 45.581453 0 0 1-5.486656 2.00474 57.293354 57.293354 0 0 1-6.119732 1.899227 97.071613 97.071613 0 0 1-11.922927 2.743328l-5.170118 0.844101a130.413601 130.413601 0 0 1-18.359196 0.949614z m0-227.168676A97.38815 97.38815 0 0 0 907.408552 287.838434a79.345492 79.345492 0 0 0 3.692942 17.30407 86.414838 86.414838 0 0 0 4.853581 12.661515 56.027202 56.027202 0 0 0 3.798454 7.28037 89.791242 89.791242 0 0 0 7.596909 11.184338 78.290366 78.290366 0 0 0 8.546522 9.601649c2.321278 2.321278 4.326018 4.114992 6.43627 5.908707A94.222772 94.222772 0 0 0 960.164863 363.702009l3.58743 1.688202 4.537042 1.899227a87.469964 87.469964 0 0 0 8.44101 2.848841c2.743328 0.738588 5.697682 1.477177 8.652035 2.110253l4.326018 0.738588a94.96136 94.96136 0 0 0 27.855332 0l3.692942-0.633076a76.496651 76.496651 0 0 0 9.285111-2.110252l3.692941-1.160639 1.793715-0.633076 1.899227-0.738588 1.371664-0.527563h0.738589l2.954353-1.266152 3.481917-1.582689 1.582689-0.844101 2.637815-1.477177a96.438537 96.438537 0 0 0 11.922927-7.702421 77.340752 77.340752 0 0 0 9.074085-7.807934 102.241731 102.241731 0 0 0 9.074086-10.551262 39.778259 39.778259 0 0 0 2.321278-3.165379 38.406595 38.406595 0 0 0 2.321277-3.481917l0.633076-1.055126a15.088305 15.088305 0 0 0 1.266151-2.110252l0.949614-1.58269a27.644307 27.644307 0 0 0 1.582689-2.84884 90.52983 90.52983 0 0 0 8.124472-21.102525v-1.266151a21.946625 21.946625 0 0 0 0.633076-2.743329 41.360948 41.360948 0 0 0 0.844101-4.220504v-1.055127a27.855332 27.855332 0 0 0 0-3.376404 108.783514 108.783514 0 0 0 0.844101-12.450489 97.915714 97.915714 0 0 0-96.016486-96.9661z" fill="#18252F" /><path d="M963.330242 260.510665h81.983308v31.653786H963.330242z" fill="#18252F" /></svg>