<?xml version="1.0" standalone="no"?><!DOCTYPE svg PUBLIC "-//W3C//DTD SVG 1.1//EN" "http://www.w3.org/Graphics/SVG/1.1/DTD/svg11.dtd"><svg class="icon" width="200px" height="200.00px" viewBox="0 0 1024 1024" version="1.1" xmlns="http://www.w3.org/2000/svg"><path d="M401.387578 790.735431c1.054921-0.241488 7.219216 20.691697 8.324977 23.017607 6.583722 13.891907 14.895988 27.021221 16.027168 42.756062 1.715835 23.640391-1.410798 49.009327-6.177006 72.204872-4.461171 21.708488-12.938666 42.095148-28.457438 58.223995q-3.698577 3.812966-7.625933 7.397155c-6.354944 5.70674-11.947294 12.176072-13.078474 20.971315-0.508396 3.965485 0.838853 7.89284 5.414412 7.89284h181.395517c17.730293 0 35.447877-0.266908 53.17817-0.165228 8.757113 0 17.526935 0.088969 26.271338 0.521105 4.168843 0.203358 8.807952 1.042211 12.849697-0.381297 5.846548-2.046292 4.359491-7.93097 2.630946-12.531949-7.270056-19.306319-26.156949-30.732508-35.816463-48.488222-20.259561-37.252681-36.121501-86.719564-21.606809-128.713032a425.603299 425.603299 0 0 0 16.103427-59.444145c6.74895-32.702541-200.803516 14.590951-209.433529 16.738922z" fill="#D8976A" /><path d="M595.925119 913.258749c-7.625933-26.449276-9.939132-54.487289-1.1566-79.805385a425.590589 425.590589 0 0 0 16.103428-59.444145c6.698111-32.715251-200.816226 14.578241-209.497079 16.726212 1.054921-0.241488 7.219216 20.691697 8.324977 23.017607 6.583722 13.891907 14.895988 27.021221 16.027168 42.756062 1.359958 18.823344-0.343167 38.739738-3.495219 57.779149 43.302587-4.804338 108.237404-8.820662 173.693325-1.0295z" fill="#BF8256" /><path d="M512.10341 480.105776a3.190182 3.190182 0 0 0-0.673624 0.749883C445.872185 573.63784 231.40554 787.43086 109.060161 808.580114c0 0 57.969798 55.224462 217.021333 38.930386 0 0 86.503496 74.988337 186.072755 17.920941 0 0 135.411143 77.288827 200.37138-25.762942 0 0 150.357971 53.623016 202.443091-35.257229 0 0 0 0.279618-1.19473 0.139809-119.536494-13.61229-343.560974-253.308062-401.67058-324.445303z" fill="#007D3D" /><path d="M524.381161 310.619424a2.948694 2.948694 0 0 0-0.622784 0.686334c-60.575325 85.766322-258.824153 283.316107-371.954863 302.914753 0 0 53.584887 51.042909 200.587447 35.981692 0 0 79.957903 69.370567 171.97749 16.522854 0 0 125.154264 71.442279 185.208484-23.81833 0 0 138.969912 49.568562 187.114966-32.588152 0 0 0 0.254198-1.10576 0.127099-110.423504-12.531949-317.531124-234.090711-371.20498-299.82625z" fill="#86BA35" /><path d="M515.191912 174.572786a2.414879 2.414879 0 0 0-0.508395 0.559235c-49.568562 70.184-211.822988 231.904611-304.41452 247.919069 0 0 43.849113 41.777401 164.173619 29.44881 0 0 65.443212 56.775068 140.749296 13.56145 0 0 102.428985 58.465483 151.578121-19.484258 0 0 113.740785 40.557252 153.141437-26.690764 0 0 0 0.216068-0.902402 0.101679-90.380011-10.282299-259.840944-191.614267-303.817156-245.415221z" fill="#007A3B" /><path d="M528.422906 10.259358l29.804686 60.397386a18.353078 18.353078 0 0 0 13.815648 10.040811l66.663361 9.684935a18.353078 18.353078 0 0 1 10.16791 31.304453l-48.234024 47.026585a18.353078 18.353078 0 0 0-5.274603 16.243236l11.438899 66.383744a18.353078 18.353078 0 0 1-26.690764 19.344449l-59.622083-31.342583a18.353078 18.353078 0 0 0-17.082089 0l-59.622084 31.342583a18.353078 18.353078 0 0 1-26.690764-19.344449l11.438899-66.383744a18.353078 18.353078 0 0 0-5.274603-16.243236l-48.234024-47.026585a18.353078 18.353078 0 0 1 10.16791-31.304453l66.663361-9.684935a18.353078 18.353078 0 0 0 13.815648-10.040811l29.804687-60.397386a18.353078 18.353078 0 0 1 32.944029 0z" fill="#FFF450" opacity=".15" /><path d="M522.932234 51.90966l19.662196 39.845498a15.722131 15.722131 0 0 0 11.832906 8.604594l43.963501 6.354943a15.722131 15.722131 0 0 1 8.706273 26.805154l-31.774719 31.012126a15.722131 15.722131 0 0 0-4.52472 13.917327l7.486124 43.772853a15.722131 15.722131 0 0 1-22.801539 16.522854l-39.324392-20.678987a15.722131 15.722131 0 0 0-14.629081 0l-39.337102 20.678987a15.722131 15.722131 0 0 1-22.801539-16.522854l7.511544-43.798273a15.722131 15.722131 0 0 0-4.52472-13.917327l-31.774719-31.012126a15.722131 15.722131 0 0 1 8.706273-26.805153l43.963501-6.354944a15.722131 15.722131 0 0 0 11.832906-8.604594l19.636776-39.820078a15.722131 15.722131 0 0 1 28.190531 0z" fill="#FFF450" /><path d="M474.088136 360.378634m-42.845032 0a42.845031 42.845031 0 1 0 85.690063 0 42.845031 42.845031 0 1 0-85.690063 0Z" fill="#E22D36" /><path d="M427.506397 565.198474m-24.88596 0a24.88596 24.88596 0 1 0 49.77192 0 24.88596 24.88596 0 1 0-49.77192 0Z" fill="#B9DFFC" /><path d="M662.880807 592.512023m-45.005712 0a45.005712 45.005712 0 1 0 90.011425 0 45.005712 45.005712 0 1 0-90.011425 0Z" fill="#F8E761" /><path d="M359.546628 772.331514m-32.689831 0a32.689831 32.689831 0 1 0 65.379662 0 32.689831 32.689831 0 1 0-65.379662 0Z" fill="#FC6195" /><path d="M689.558862 776.246159m-39.794659 0a39.794658 39.794658 0 1 0 79.589317 0 39.794658 39.794658 0 1 0-79.589317 0Z" fill="#FF866E" /></svg>